<svg width="443" height="442" viewBox="0 0 443 442" fill="none" xmlns="http://www.w3.org/2000/svg">
<path d="M345.142 2.28594C350.419 6.21759 351.721 11.4708 353.383 17.6568C353.565 18.3292 353.748 19.0016 353.936 19.6943C354.533 21.899 355.121 24.1061 355.709 26.3133C356.125 27.8575 356.542 29.4016 356.959 30.9455C358.054 35.0002 359.141 39.057 360.227 43.1142C361.329 47.2293 362.438 51.3425 363.547 55.4559C364.794 60.0863 366.042 64.717 367.283 69.3492C367.473 70.0566 367.663 70.764 367.858 71.4929C368.369 73.3958 368.878 75.2989 369.388 77.2021C370.048 79.625 370.73 82.0418 371.429 84.4537C372.194 87.1764 372.653 89.4159 372.705 92.2234C372.733 92.926 372.762 93.6285 372.791 94.3523C371.989 98.3667 370.034 101.458 366.662 103.837C364.704 104.948 362.719 105.969 360.705 106.973C353.643 110.725 347.937 114.901 342.33 120.661C341.636 121.322 340.943 121.984 340.228 122.665C326.865 136.26 322.017 155.182 322.017 173.657C322.262 191.432 328.623 207.624 341.049 220.454C341.801 221.182 342.554 221.911 343.33 222.661C344.062 223.379 344.794 224.097 345.549 224.837C360.581 238.89 379.042 244.006 399.267 243.536C400.073 243.495 400.878 243.454 401.707 243.412C407.118 243.247 410.06 244.008 414.33 247.661C417.149 250.854 418.158 253.844 419.259 257.936C419.606 259.208 419.954 260.481 420.311 261.792C420.681 263.182 421.05 264.572 421.42 265.962C421.809 267.4 422.198 268.838 422.589 270.276C423.616 274.067 424.632 277.862 425.647 281.656C426.667 285.465 427.697 289.271 428.726 293.077C430.592 299.984 432.453 306.892 434.294 313.806C435.011 316.474 435.738 319.136 436.48 321.797C436.666 322.473 436.852 323.148 437.044 323.845C437.558 325.709 438.077 327.571 438.597 329.433C439.573 333.733 439.873 337.487 438.33 341.661C432.212 350.189 418.6 351.655 408.931 354.329C408.146 354.547 407.36 354.765 406.551 354.989C402.397 356.141 398.242 357.288 394.087 358.432C389.818 359.608 385.554 360.799 381.291 361.993C377.988 362.916 374.683 363.826 371.376 364.734C369.804 365.168 368.232 365.606 366.662 366.049C349.333 370.924 349.333 370.924 342.33 369.661C337.053 366.48 334.799 362.421 332.142 357.098C325.956 345.485 317.759 336.408 306.33 329.661C305.429 329.129 304.528 328.596 303.599 328.048C287.359 319.215 268.565 316.916 250.58 321.161C230.275 327.451 214.531 338.941 204.368 357.936C201.115 364.301 198.752 370.659 197.33 377.661C197.139 378.538 196.948 379.414 196.752 380.317C196.054 385.849 196.366 391.398 196.545 396.962C196.629 402.295 196.483 406.129 193.33 410.661C189.464 414.311 185.587 415.79 180.545 417.135C179.777 417.35 179.009 417.565 178.218 417.787C175.689 418.491 173.156 419.178 170.623 419.864C168.855 420.351 167.088 420.838 165.321 421.327C161.62 422.346 157.917 423.357 154.212 424.362C149.477 425.647 144.748 426.952 140.02 428.263C136.372 429.272 132.721 430.272 129.069 431.269C127.324 431.746 125.581 432.226 123.838 432.709C121.396 433.384 118.95 434.046 116.502 434.705C115.791 434.904 115.08 435.104 114.347 435.309C108.36 436.895 102.729 437.883 97.0173 434.973C92.2344 430.858 90.6639 426.094 89.0773 420.136C88.7719 419.025 88.7718 419.025 88.4602 417.892C87.7921 415.455 87.1349 413.015 86.4782 410.575C86.0146 408.872 85.5505 407.17 85.0858 405.468C84.1145 401.903 83.1484 398.337 82.1862 394.77C80.9558 390.21 79.715 385.652 78.4707 381.095C77.5116 377.581 76.557 374.065 75.6037 370.548C75.1478 368.868 74.6909 367.188 74.2329 365.508C73.5922 363.155 72.9571 360.8 72.3234 358.445C72.0414 357.414 72.0414 357.414 71.7536 356.363C69.7508 348.867 68.3654 343.665 72.3298 336.661C75.8865 333.463 79.6745 331.32 83.8923 329.098C101.643 319.229 112.188 303.858 118.295 284.622C122.261 269.891 120.832 256.029 116.33 241.661C116.053 240.748 115.775 239.836 115.49 238.895C109.593 222.047 96.0569 209.295 80.572 201.223C67.8767 195.147 55.6471 193.35 41.7126 193.964C35.6818 194.087 32.1605 193.389 27.3298 189.661C24.8187 185.331 23.3639 180.857 22.0615 176.054C21.8562 175.317 21.651 174.579 21.4395 173.82C20.7674 171.397 20.1047 168.973 19.4431 166.548C18.9768 164.851 18.5102 163.155 18.0434 161.459C17.0683 157.909 16.0982 154.357 15.1313 150.805C13.896 146.269 12.6444 141.738 11.3885 137.208C10.4206 133.707 9.46327 130.204 8.50881 126.699C8.05197 125.028 7.5915 123.358 7.12721 121.689C6.47712 119.348 5.84184 117.002 5.20992 114.656C5.01826 113.978 4.8266 113.299 4.62914 112.601C2.97661 106.353 2.06481 100.191 5.01729 94.2859C9.15035 89.5944 13.9018 87.9894 19.8071 86.3926C20.9106 86.0847 20.9106 86.0847 22.0365 85.7706C24.4589 85.0972 26.8843 84.4352 29.3103 83.7742C31.0056 83.308 32.7008 82.8414 34.396 82.3746C37.9478 81.3986 41.5012 80.4286 45.0556 79.4624C49.5906 78.2288 54.1203 76.9768 58.6489 75.7197C62.1494 74.7508 65.6531 73.7938 69.1577 72.8399C70.828 72.3835 72.4972 71.923 74.1652 71.4584C94.9701 65.676 94.9701 65.676 102.693 69.1922C105.925 72.2184 107.579 75.2298 109.517 79.1609C118.641 96.4313 133.546 108.789 152.119 114.989C171.899 120.936 192.097 118.221 210.146 108.571C226.284 98.8885 238.202 83.7632 243.588 65.7C245.938 56.0747 246.616 46.7387 246.081 36.8772C245.959 33.1594 246.244 30.8642 247.713 27.3797C254.745 20.0741 267.433 18.5141 276.994 15.8953C278.597 15.4528 280.2 15.0101 281.804 14.5672C285.146 13.6455 288.489 12.7284 291.834 11.8143C296.105 10.6461 300.371 9.46336 304.637 8.27672C307.94 7.36028 311.245 6.45325 314.551 5.54882C316.125 5.1167 317.698 4.68134 319.27 4.24259C321.471 3.62972 323.674 3.03004 325.879 2.4334C327.128 2.09016 328.377 1.74693 329.664 1.3933C334.753 0.376649 340.481 -0.503767 345.142 2.28594Z" fill="black"/>
<path d="M75.9898 228.923C86.3659 236.631 93.2082 246.741 95.7672 259.536C97.5429 272.903 95.2538 286.363 87.0797 297.348C78.3038 307.887 67.2308 315.246 53.3297 316.661C39.6372 317.893 27.1427 313.617 16.3062 305.356C9.08434 299.181 3.3603 289.944 1.32967 280.661C1.1492 279.89 0.968735 279.119 0.782798 278.325C-1.62827 264.15 1.5674 250.208 9.85702 238.505C26.193 218.517 54.563 214.927 75.9898 228.923Z" fill="black"/>
<path d="M295.642 353.973C297.225 355.177 298.789 356.405 300.33 357.661C300.967 358.161 301.603 358.661 302.259 359.177C310.699 366.604 315.768 378.987 316.576 390.02C317.076 404.873 312.814 417.602 302.955 428.786C292.023 439.208 278.459 442.182 263.916 441.934C252.046 441.442 240.781 435.628 232.58 427.098C223.065 415.269 219.378 402.102 220.791 387.091C222.103 378.741 225.39 371.475 230.33 364.661C230.747 364.067 231.165 363.472 231.595 362.86C246.399 343.675 276.189 341.043 295.642 353.973Z" fill="black"/>
<path d="M424.33 133.661C425.361 134.383 426.392 135.105 427.455 135.848C436.401 143.627 441.05 155.989 442.267 167.473C442.873 181.307 438.741 193.147 430.142 203.911C421.232 213.446 409.336 218.608 396.423 219.182C381.382 219.432 370.092 215.073 359.181 204.598C349.158 194.165 345.792 181.715 346.017 167.544C347.025 155.02 352.612 143.298 361.716 134.618C380.757 120.359 405.089 119.038 424.33 133.661Z" fill="black"/>
<path d="M198.103 6.23899C200.638 7.92891 202.986 9.71568 205.33 11.6609C205.965 12.1726 206.601 12.6844 207.255 13.2116C215.765 20.8151 220.999 32.3627 221.666 43.7038C222.014 59.6528 217.974 71.5752 207.017 83.4109C196.69 93.1852 185.279 96.1688 171.444 96.0827C160.45 95.7529 152.058 92.2385 143.33 85.6609C142.463 85.0834 141.597 84.5059 140.705 83.9109C132.578 76.2115 126.42 64.8911 126.091 53.5359C125.743 38.2974 128.261 26.5575 138.767 14.9734C139.613 14.2102 140.458 13.4471 141.33 12.6609C141.807 12.18 142.284 11.6992 142.775 11.2038C156.921 -2.2929 181.604 -3.1495 198.103 6.23899Z" fill="black"/>
</svg>
